<?xml version="1.0" encoding="utf-8"?>
<!-- Generator: Adobe Illustrator 23.0.5, SVG Export Plug-In . SVG Version: 6.00 Build 0)  -->
<svg version="1.1" id="Layer_1" xmlns="http://www.w3.org/2000/svg" xmlns:xlink="http://www.w3.org/1999/xlink" x="0px" y="0px"
	 viewBox="0 0 16 16" style="enable-background:new 0 0 16 16;" xml:space="preserve">
<style type="text/css">
	.st0{fill:#FEFEFE;}
</style>
<g>
	<path class="st0" d="M2.8,9.2C2.5,9.2,2.2,9.3,1.9,9.6C1.8,9.7,1.7,10,1.8,10.2c0.1,0.2,0.2,0.4,0.4,0.4c0.2,0,0.4,0,0.6,0
		c0.4-0.1,0.7-0.4,1-0.8c0.4-0.6,0.7-1.2,1-1.9c0.3-0.7,0.5-1.4,0.8-2.2c0-0.1,0.1-0.2,0.2-0.3c0.1-0.1,0.2-0.1,0.4,0
		c0.1,0.1,0.2,0.2,0.2,0.3c0,0.6,0,1.3,0,1.9c0,0.7,0.1,1.3,0.2,2c0,0.1,0,0.2,0.1,0.3C6.8,9.2,7,8.5,7.3,7.8C7.6,6.9,8,6.2,8.7,5.6
		C9,5.2,9.4,5.1,9.9,5.2c0.4,0.1,0.7,0.5,0.7,0.9c0,0.5-0.2,0.9-0.6,1C9.8,7.2,9.7,7.2,9.5,7c0,0-0.1-0.1,0-0.1c0-0.1,0.1,0,0.1,0
		c0.1,0,0.3,0,0.4-0.1c0.2-0.1,0.3-0.3,0.3-0.5c0-0.2-0.1-0.4-0.4-0.4C9.6,5.8,9.3,5.9,9.1,6c-0.5,0.3-0.8,0.7-1,1.1
		C7.7,7.8,7.5,8.5,7.3,9.3C7.2,9.7,7.1,10.2,7,10.7c0,0,0,0.1,0,0.1c-0.1,0.4-0.4,0.5-0.7,0.2c-0.2-0.2-0.3-0.5-0.4-0.7
		C5.6,9.7,5.5,9,5.5,8.4c0-0.3,0-0.6,0-0.9c0,0,0-0.1,0-0.1C5.3,7.9,5.2,8.3,5,8.7c-0.3,0.8-0.6,1.5-1.1,2.1
		c-0.3,0.4-0.7,0.6-1.2,0.7c-0.5,0.1-0.9-0.1-1.2-0.5c-0.3-0.4-0.4-0.8-0.2-1.3C1.5,9.3,2,9,2.4,9.1C2.6,9.1,2.7,9.1,2.8,9.2z"/>
	<path class="st0" d="M12.7,10.5c-0.1,0.2-0.2,0.3-0.3,0.4c-0.2,0.2-0.5,0.4-0.8,0.3c-0.3-0.1-0.4-0.4-0.5-0.7c0-0.2,0-0.3,0-0.5
		c0-0.1,0-0.1-0.1-0.1c0,0-0.1,0-0.1,0c-0.2-0.1-0.2,0-0.2,0.1c-0.1,0.3-0.2,0.6-0.4,0.8c-0.3,0.5-0.9,0.3-1.1-0.1
		c0-0.1-0.1-0.1-0.1-0.2c-0.1,0.1-0.2,0.3-0.3,0.4c-0.3,0.3-0.8,0.2-1-0.2C7.6,10.5,7.5,10,7.6,9.5C7.6,9.3,7.8,9.1,8.1,9
		c0.2-0.1,0.3,0,0.2,0.2c0,0.3-0.1,0.7,0,1c0,0.1,0,0.2,0.1,0.3c0.1,0.1,0.2,0.1,0.2,0c0.1-0.2,0.2-0.4,0.2-0.6c0-0.1,0-0.3,0.1-0.4
		C9,9.2,9.1,9,9.4,8.9c0.2-0.1,0.3,0,0.2,0.2c0,0.4,0,0.8,0.1,1.2c0,0.1,0.1,0.3,0.2,0.3c0.1,0,0.2-0.1,0.3-0.2
		c0.1-0.1,0.1-0.2,0.2-0.4c0-0.1,0.1-0.3-0.1-0.4c-0.1-0.2-0.2-0.4-0.2-0.6c0-0.1,0.1-0.2,0.2-0.3c0.1-0.1,0.3,0,0.4,0.2
		c0.1,0.2,0.1,0.4,0.1,0.6c0,0.1,0,0.2,0.1,0.2c0.1,0,0.2,0,0.3-0.1c0-0.1,0.1-0.1,0.1-0.2C11.4,9.1,11.6,9,11.8,9
		C11.9,9,12,9,11.9,9.2c-0.1,0.3-0.2,0.7-0.2,1c0,0.2,0,0.3,0.2,0.4c0.2,0.1,0.3-0.1,0.4-0.2c0.2-0.3,0.4-0.6,0.5-0.9
		C12.9,9.2,13,9,13.3,9c0.2,0,0.3,0,0.2,0.3c0,0.2-0.1,0.4-0.1,0.6c0.1-0.2,0.3-0.4,0.4-0.6C14,9,14.1,8.9,14.3,8.9
		c0.3-0.1,0.5,0.1,0.5,0.4c0,0.2,0,0.4-0.1,0.6c0,0.2-0.1,0.3-0.1,0.5c0,0.1,0,0.2,0.1,0.2c0.1,0,0.2,0,0.2-0.1
		c0.2-0.2,0.3-0.3,0.3-0.5c0.1-0.2,0.1-0.3,0.2-0.5c0-0.1,0.1-0.2,0.2-0.2c0.1,0,0.1,0.1,0.1,0.2c-0.2,0.6-0.4,1.1-0.8,1.5
		c-0.1,0.1-0.2,0.2-0.4,0.2c-0.2,0-0.4,0-0.5-0.2c-0.2-0.3-0.1-0.6-0.1-0.8c0-0.2,0.1-0.4,0.1-0.6c0-0.1,0-0.1,0-0.1
		c-0.1,0-0.1,0-0.1,0.1c-0.1,0.1-0.1,0.2-0.2,0.3c-0.2,0.4-0.3,0.8-0.4,1.2c0,0.2-0.1,0.2-0.3,0.2c-0.2-0.1-0.3-0.2-0.4-0.4
		C12.7,10.7,12.7,10.6,12.7,10.5z"/>
	<path class="st0" d="M3.2,9c-0.4,0-0.7-0.2-1-0.5C2,8.1,1.8,7.7,1.8,7.3c0-0.1,0-0.2-0.1-0.3c0,0.3,0.1,0.5,0.1,0.8
		c0,0.3,0.2,0.5,0.3,0.8C1.5,8.4,1,7.9,1,7.4C0.9,7.2,1,7,1,6.8c0-0.2,0.1-0.4,0-0.5c0,0,0-0.1,0.1-0.1c0.5,0,0.9,0.1,1.2,0.5
		c0.2,0.2,0.2,0.5,0.2,0.7c0,0.3,0,0.6,0.1,0.9C2.7,8.6,2.8,8.9,3.2,9z"/>
	<path class="st0" d="M4.1,6.1c0.4,0.4,0.5,1,0.2,1.4C4.1,7.8,3.9,7.9,3.6,8C3.5,8,3.3,8.1,3.2,8.2c0.1-0.4,0.2-0.7,0.6-0.9
		C3.5,7.4,3,7.9,2.9,8.6c-0.1,0,0-0.1,0-0.2C2.9,8,3,7.6,3.1,7.2C3.2,7,3.4,6.8,3.6,6.7C3.9,6.6,4,6.4,4.1,6.1z"/>
	<path class="st0" d="M1.7,8.8C1,8.8,0.2,7.6,0.2,6.7c0.1-1.3,1.2-2.3,2.5-2.2c1,0.1,2,1.1,2,1.9C4.6,5.8,4.3,5.4,3.9,5.1
		C3.4,4.8,3,4.7,2.4,4.7C1.6,4.8,0.8,5.4,0.6,6.3C0.3,7,0.5,8.2,1.7,8.8z"/>
	<path class="st0" d="M3.1,7.1C2.9,6.9,3,6.7,3,6.5C2.9,6.6,2.9,6.8,2.9,6.9c0,0.3-0.1,0.5-0.3,0.7c0.1-0.4,0-0.7-0.1-1.1
		c-0.1-0.2,0-0.4,0.1-0.5c0-0.1,0.1-0.1,0.1-0.2c0.1-0.1,0.1-0.2,0-0.3c0.4,0.1,0.8,0.5,0.5,1C3.2,6.7,3.1,6.9,3.1,7.1z"/>
	<path class="st0" d="M2.5,5.7c0,0.2-0.2,0.4-0.4,0.4c-0.2,0-0.4-0.2-0.4-0.4c0-0.2,0.2-0.4,0.4-0.4C2.3,5.3,2.5,5.5,2.5,5.7z"/>
	<path class="st0" d="M11.8,8.8c-0.2,0-0.4-0.2-0.3-0.4c0.1-0.2,0.4-0.4,0.6-0.3c0.1,0,0.2,0.1,0.2,0.2c0,0.1,0,0.3-0.1,0.4
		C12.1,8.7,12,8.8,11.8,8.8z"/>
</g>
</svg>
